<svg xmlns="http://www.w3.org/2000/svg" viewBox="0 0 128 128">
  <rect width="128" height="128" rx="28" fill="#0e211a"/>
  <g transform="rotate(-4 64 64)">
    <rect x="28" y="24" width="72" height="80" rx="3" fill="#f4efe2"/>
    <path d="M28 104l6 5 6-5 6 5 6-5 6 5 6-5 6 5 6-5 6 5 6-5 6 5 6-5v-6H28z" fill="#f4efe2"/>
    <rect x="38" y="36" width="52" height="6" rx="2" fill="#17150f"/>
    <rect x="38" y="50" width="40" height="6" rx="2" fill="#57523f"/>
    <rect x="38" y="64" width="46" height="6" rx="2" fill="#57523f"/>
  </g>
  <g transform="rotate(-12 84 84)">
    <rect x="58" y="62" width="52" height="40" rx="6" fill="none" stroke="#d7301f" stroke-width="5"/>
    <path d="M70 82l9 9 17-19" fill="none" stroke="#d7301f" stroke-width="7" stroke-linecap="round" stroke-linejoin="round"/>
  </g>
</svg>
